<svg width="57" height="40" viewBox="0 0 57 40" fill="none" xmlns="http://www.w3.org/2000/svg">
<path d="M45.8124 11.1314C48.2201 12.9548 49.5128 14.9998 49.5128 18.3148C49.5128 24.1481 43.7693 29.3764 35.4171 31.9614L33.3296 29.6648C41.1255 26.6581 42.6496 22.7564 43.2574 20.2964C42.0021 20.7598 40.3588 20.9214 38.7482 20.8148C34.5311 20.5364 31.207 18.0681 31.207 14.9998C31.207 13.4527 32.069 11.9689 33.6034 10.875C35.1377 9.78101 37.2188 9.16643 39.3887 9.16643C41.8969 9.16643 44.2953 9.98309 45.8124 11.1314V11.1314ZM22.4363 11.1314C24.8441 12.9548 26.1368 14.9998 26.1368 18.3148C26.1368 24.1481 20.3933 29.3764 12.041 31.9614L9.95351 29.6648C17.7494 26.6581 19.2736 22.7564 19.8813 20.2964C18.626 20.7598 16.9827 20.9214 15.3721 20.8148C11.155 20.5364 7.83097 18.0681 7.83097 14.9998C7.83097 13.4527 8.69296 11.9689 10.2273 10.875C11.7617 9.781 13.8427 9.16642 16.0126 9.16642C18.5208 9.16642 20.9192 9.98309 22.4363 11.1314V11.1314Z" fill="#18191A"/>
</svg>
